# xmcd
#
# Track frame offsets:
#	150
#	14867
#	32837
#	45815
#	62882
#	78781
#	94676
#	108076
#	124737
#	139206
#	159227
#	174969
#
# Disc length: 2563 seconds
#
# Revision: 1
# Processed by: cddbd v1.5.2PL0 Copyright (c) Steve Scherf et al.
# Submitted via: audiograbber 1.83.01
#
DISCID=8d0a010c
DTITLE=Eleison - Coração Indomável
DYEAR=2010
DGENRE=Country
TTITLE0=CORAÇÃO INDOMÁVEL
TTITLE1=CUIDADO
TTITLE2=VAI
TTITLE3=SEM VOCÊ
TTITLE4=QUEBRA ESTE GELO
TTITLE5=EU NÃO SOU BRINQUEDO SEU
TTITLE6=AMOR À PRIMEIRA VISTA
TTITLE7=SEGUE O DESTINO
TTITLE8=FOI ENGANO
TTITLE9=DESCULPA
TTITLE10=AMANTE IDEAL
TTITLE11=É POR ELA QUE EU VIVO
EXTD=
EXTT0=
EXTT1=
EXTT2=
EXTT3=
EXTT4=
EXTT5=
EXTT6=
EXTT7=
EXTT8=
EXTT9=
EXTT10=
EXTT11=
PLAYORDER=
